<svg width="171" height="207" viewBox="0 0 171 207" fill="none" xmlns="http://www.w3.org/2000/svg">
<path d="M0 102.829C0 86.9073 12.9073 74 28.8293 74H83.7491C94.7947 74 103.749 82.9543 103.749 94V111.659C103.749 122.704 94.7948 131.659 83.7491 131.659H28.8293C12.9073 131.659 0 118.751 0 102.829Z" fill="#B3B3B3"/>
<path d="M0 12.6222C0 5.65116 5.65116 0 12.6222 0H131.842C153.137 0 170.4 17.2631 170.4 38.5583C170.4 50.0577 161.078 59.3797 149.579 59.3797H21.9871C9.84397 59.3797 0 49.5358 0 37.3927V12.6222Z" fill="#B3B3B3"/>
<path d="M0 169.025C0 156.882 9.84396 147.038 21.9871 147.038H149.579C161.078 147.038 170.4 156.36 170.4 167.86C170.4 189.155 153.137 206.418 131.842 206.418H12.6222C5.65118 206.418 0 200.767 0 193.796V169.025Z" fill="#B3B3B3"/>
</svg>
