<svg width="258" height="402" viewBox="0 0 258 402" fill="none" xmlns="http://www.w3.org/2000/svg">
<rect x="49" y="27.8451" width="80" height="9.94467" rx="4.97233" fill="url(#paint0_linear_16_15)"/>
<ellipse cx="28.5" cy="32.3201" rx="12.5" ry="12.4308" fill="#88FAFE"/>
<rect x="16" y="90.4965" width="194" height="44.751" rx="10" fill="url(#paint1_linear_16_15)"/>
<rect x="16" y="158.12" width="162" height="14.917" rx="2" fill="#7A2FD9"/>
<rect x="16" y="158.12" width="162" height="14.917" rx="2" fill="url(#paint2_linear_16_15)"/>
<rect x="16" y="203.866" width="143" height="14.917" rx="2" fill="url(#paint3_linear_16_15)"/>
<rect x="16" y="180.993" width="120" height="14.917" rx="2" fill="url(#paint4_linear_16_15)"/>
<path fill-rule="evenodd" clip-rule="evenodd" d="M0 334.279L10.7917 327.507C21.5833 320.735 43.1667 307.191 64.75 300.419C86.3333 293.647 107.917 293.647 129.5 302.677C151.083 311.706 172.667 329.765 194.25 332.022C215.833 334.279 237.417 320.735 248.208 313.963L258 306.74V391.721C258 397.137 253.689 401.569 248.275 401.717L238 402C227.208 402 215.833 402 194.25 402C172.667 402 151.083 402 129.5 402C107.917 402 86.3333 402 64.75 402C45.8032 402 22.7787 401.815 10.1359 401.77C7.19371 401.759 4.40004 400.46 2.5 398.213V398.213L2.27606 397.941C0.804505 396.151 0 393.906 0 391.589V334.279Z" fill="url(#paint5_linear_16_15)"/>
<rect x="219" y="27.8613" width="23" height="2.98515" rx="1" fill="#1FC8CD"/>
<rect x="219" y="34.8268" width="23" height="2.98515" rx="1" fill="#1FC8CD"/>
<defs>
<linearGradient id="paint0_linear_16_15" x1="51.5" y1="32.8174" x2="129" y2="32.8174" gradientUnits="userSpaceOnUse">
<stop stop-color="#8BFCFF"/>
<stop offset="1" stop-color="#1FC8CD"/>
</linearGradient>
<linearGradient id="paint1_linear_16_15" x1="16" y1="113.369" x2="206.499" y2="117.391" gradientUnits="userSpaceOnUse">
<stop stop-color="#88D2FE"/>
<stop offset="1" stop-color="#23CACF"/>
</linearGradient>
<linearGradient id="paint2_linear_16_15" x1="25" y1="158.12" x2="174.983" y2="173.202" gradientUnits="userSpaceOnUse">
<stop stop-color="#83D2FC"/>
<stop offset="1" stop-color="#26CBD1"/>
</linearGradient>
<linearGradient id="paint3_linear_16_15" x1="16" y1="208.341" x2="158.999" y2="211.86" gradientUnits="userSpaceOnUse">
<stop stop-color="#80D2FB"/>
<stop offset="1" stop-color="#2BCCD4"/>
</linearGradient>
<linearGradient id="paint4_linear_16_15" x1="16.5" y1="182.485" x2="135.99" y2="193.042" gradientUnits="userSpaceOnUse">
<stop stop-color="#83D2FC"/>
<stop offset="1" stop-color="#27CBD2"/>
</linearGradient>
<linearGradient id="paint5_linear_16_15" x1="129" y1="295.352" x2="129" y2="401.76" gradientUnits="userSpaceOnUse">
<stop stop-color="#30CDD7"/>
<stop offset="0.681085" stop-color="#0B6D73"/>
<stop offset="0.982729" stop-color="#004F54"/>
<stop offset="0.988762" stop-color="#004F54"/>
<stop offset="0.988862" stop-color="#004F54"/>
</linearGradient>
</defs>
</svg>
