<svg width="360" height="600" viewBox="0 0 360 600" fill="none" xmlns="http://www.w3.org/2000/svg">
<rect width="360" height="600" rx="20" fill="url(#paint0_linear_5_7)" fill-opacity="0.4"/>
<rect x="2" y="2" width="356" height="596" rx="20" fill="#FDFDFD"/>
<rect x="30" y="251" width="210" height="20" rx="5" fill="url(#paint1_linear_5_7)" fill-opacity="0.5"/>
<rect x="30" y="283" width="245" height="20" rx="5" fill="url(#paint2_linear_5_7)" fill-opacity="0.5"/>
<path fill-rule="evenodd" clip-rule="evenodd" d="M2 384L16.8333 387.963C31.6667 391.926 61.3333 399.852 91 407.778C120.667 415.704 150.333 423.63 180 443.444C209.667 463.259 239.333 494.963 269 506.852C298.667 518.741 328.333 510.815 343.167 506.852L358 502.889V577.794C358 579.26 357.843 580.723 357.531 582.156L357.434 582.603C356.208 588.243 352.552 593.054 347.445 595.745V595.745C344.635 597.226 341.512 598 338.336 598C322.455 598 295.728 598 269 598C239.333 598 209.667 598 180 598C150.333 598 120.667 598 91 598C64.4007 598 37.8014 598 21.8937 598C18.5669 598 15.3006 597.172 12.3734 595.592V595.592C9.8215 594.214 7.59888 592.299 5.85879 589.978L5.5 589.5L4 587V587C2.68135 584.033 2 580.822 2 577.576V384Z" fill="url(#paint3_linear_5_7)" fill-opacity="0.5"/>
<rect x="30" y="315" width="120" height="20" rx="5" fill="url(#paint4_linear_5_7)" fill-opacity="0.5"/>
<line x1="291" y1="53.5" x2="330" y2="53.5" stroke="#BBCBE8" stroke-width="5"/>
<line x1="291" y1="66.5" x2="330" y2="66.5" stroke="#BBCBE8" stroke-width="5"/>
<line x1="291" y1="40.5" x2="330" y2="40.5" stroke="#BBCBE8" stroke-width="5"/>
<rect x="30" y="150" width="240" height="52" rx="10" fill="url(#paint5_linear_5_7)" fill-opacity="0.5"/>
<circle cx="50" cy="56" r="20" fill="#10A9FF" fill-opacity="0.2"/>
<rect x="78" y="45" width="104" height="20" rx="3" fill="#10A9FF" fill-opacity="0.2"/>
<defs>
<linearGradient id="paint0_linear_5_7" x1="0" y1="0" x2="386.691" y2="571.954" gradientUnits="userSpaceOnUse">
<stop stop-color="#10A9FF"/>
<stop offset="1" stop-color="#FD193D"/>
</linearGradient>
<linearGradient id="paint1_linear_5_7" x1="30" y1="251" x2="240" y2="271" gradientUnits="userSpaceOnUse">
<stop stop-color="#BCCBE8"/>
<stop offset="1" stop-color="#DBB8CE"/>
</linearGradient>
<linearGradient id="paint2_linear_5_7" x1="30" y1="283" x2="274.207" y2="310.134" gradientUnits="userSpaceOnUse">
<stop stop-color="#BFCAE6"/>
<stop offset="1" stop-color="#DDB7CD"/>
</linearGradient>
<linearGradient id="paint3_linear_5_7" x1="2" y1="396.5" x2="347.5" y2="588.5" gradientUnits="userSpaceOnUse">
<stop stop-color="#CDC1DA"/>
<stop offset="1" stop-color="#FEA3B2"/>
</linearGradient>
<linearGradient id="paint4_linear_5_7" x1="30" y1="315" x2="150.731" y2="321.57" gradientUnits="userSpaceOnUse">
<stop stop-color="#C1C8E4"/>
<stop offset="1" stop-color="#E2B4C8"/>
</linearGradient>
<linearGradient id="paint5_linear_5_7" x1="37.5556" y1="150" x2="271.871" y2="191.417" gradientUnits="userSpaceOnUse">
<stop stop-color="#AFD3F2"/>
<stop offset="1" stop-color="#D5BCD3"/>
</linearGradient>
</defs>
</svg>
